<?xml version="1.0" encoding="utf-8"?>
<!-- Generator: Adobe Illustrator 22.1.0, SVG Export Plug-In . SVG Version: 6.00 Build 0)  -->
<svg version="1.1" id="Lag_1" xmlns="http://www.w3.org/2000/svg" xmlns:xlink="http://www.w3.org/1999/xlink" x="0px" y="0px"
	 viewBox="0 0 200 100" style="enable-background:new 0 0 200 100;" xml:space="preserve">
<style type="text/css">
	.st0{fill:#CF7894;}
</style>
<g>
	<path d="M32.3,24.1c1.1-0.5,2.3-0.8,3.6-0.8c1.6,0,2.9,0.5,3.8,1.4s1.4,2.6,1.4,5v47.8h-7.7V32.1c0-0.9-0.2-1.6-0.5-2.1
		c-0.3-0.5-0.7-0.7-1.1-0.7c-0.5,0-0.9,0.3-1.2,0.8c-0.3,0.5-0.5,1.2-0.5,2.1v45.2h-7.7V32.1c0-0.9-0.2-1.6-0.5-2.1
		c-0.3-0.5-0.7-0.8-1.1-0.8c-0.4,0-0.8,0.3-1.2,0.8c-0.4,0.5-0.5,1.2-0.5,2.1v45.2h-7.7V23.3h7.7v2.6c0.8-0.8,1.6-1.5,2.6-1.9
		c0.9-0.4,2-0.7,3.3-0.7c1,0,1.9,0.2,2.7,0.7c0.8,0.4,1.4,1.2,1.8,2.2C30.3,25.3,31.2,24.6,32.3,24.1z"/>
	<path d="M53.1,68.3c0,2,0.6,2.9,1.7,2.9c1.1,0,1.6-1,1.6-2.9V56.6h7.7v14.2c0,2.9-1,4.9-3.1,6c-1.3,0.7-3.3,1.1-6,1.1
		c-2.7,0-4.8-0.4-6.3-1.2c-2.2-1.1-3.3-3.1-3.3-6V29.6c0-2.8,1-4.8,3.1-6c1.4-0.8,3.4-1.2,6-1.2c2.7,0,4.8,0.4,6.3,1.2
		c2.2,1.1,3.3,3.1,3.3,6v21.9h-11V68.3z M56.5,45.8V32.1c0-0.9-0.2-1.6-0.5-2.1c-0.3-0.5-0.7-0.8-1.1-0.8c-0.4,0-0.8,0.3-1.2,0.8
		c-0.4,0.5-0.5,1.2-0.5,2v13.6H56.5z"/>
	<path d="M77.1,23.3h2.6v6.3h-2.6v38.8c0,1.1,0.4,1.9,1.2,2.3c0.3,0.2,0.7,0.2,1.3,0.2v6.5h-5.7c-1.4,0-2.5-0.4-3.3-1.2
		c-0.8-0.8-1.2-2.1-1.2-3.9V29.6h-2.6v-6.3h2.6v-5.3l7.7-2.6V23.3z"/>
	<path d="M92.5,23.3h2.6v6.3h-2.6v38.8c0,1.1,0.4,1.9,1.2,2.3c0.3,0.2,0.7,0.2,1.3,0.2v6.5h-5.7c-1.4,0-2.5-0.4-3.3-1.2
		c-0.8-0.8-1.2-2.1-1.2-3.9V29.6h-2.6v-6.3h2.6v-5.3l7.7-2.6V23.3z"/>
	<path d="M105.3,68.3c0,2,0.6,2.9,1.7,2.9c1.1,0,1.6-1,1.6-2.9V56.6h7.7v14.2c0,2.9-1,4.9-3.1,6c-1.3,0.7-3.3,1.1-6,1.1
		c-2.7,0-4.8-0.4-6.3-1.2c-2.2-1.1-3.3-3.1-3.3-6V29.6c0-2.8,1-4.8,3.1-6c1.4-0.8,3.4-1.2,6-1.2c2.7,0,4.8,0.4,6.3,1.2
		c2.2,1.1,3.3,3.1,3.3,6v21.9h-11V68.3z M108.7,45.8V32.1c0-0.9-0.2-1.6-0.5-2.1c-0.3-0.5-0.7-0.8-1.1-0.8c-0.4,0-0.8,0.3-1.2,0.8
		c-0.4,0.5-0.5,1.2-0.5,2v13.6H108.7z"/>
	<path class="st0" d="M126.8,23.3v1.9c0.5-0.5,0.9-0.9,1.4-1.4c0.9-0.8,2.1-1.2,3.7-1.2c2,0,3.4,0.4,4.2,1.2c1.1,1,1.7,3,1.7,6V71
		c0,2.9-0.7,4.9-2,6c-0.9,0.7-2.2,1.1-3.9,1.1c-1.1,0-2.1-0.3-3-0.9c-0.4-0.3-1.1-0.8-2.1-1.7v9.7H119V23.3H126.8z M128.5,71.4
		c1.1,0,1.6-1,1.6-2.9V32.3c0-2-0.5-2.9-1.5-2.9c-0.4,0-0.8,0.3-1.2,0.9c-0.4,0.6-0.6,1.3-0.6,2v36.1
		C126.8,70.4,127.3,71.4,128.5,71.4z"/>
	<path d="M140.8,50.2c0-1.6,0.6-2.8,1.8-3.4c0.8-0.4,1.9-0.6,3.4-0.6c1.5,0,2.7,0.2,3.6,0.7c1.3,0.6,1.9,1.8,1.9,3.4v5.9h-4.4v-4.4
		c0-1.1-0.3-1.7-1-1.7c-0.3,0-0.5,0.1-0.7,0.4c-0.2,0.3-0.3,0.7-0.3,1.2v1.8c0,2.1,0.5,3.8,1.6,5.2c1,1.2,2,2.4,3,3.6
		c1.1,1.7,1.6,4,1.6,6.9v4.5c0,1.6-0.6,2.8-1.9,3.4c-0.8,0.4-2,0.6-3.6,0.6c-1.5,0-2.6-0.2-3.4-0.7c-1.1-0.6-1.7-1.7-1.7-3.4v-8.1
		h4.4v6.7c0,1.1,0.3,1.7,0.9,1.7c0.3,0,0.5-0.2,0.7-0.5s0.3-0.7,0.3-1.2v-2.7c0-2.8-1.1-5.2-3.2-7.3c-2.1-2.1-3.2-5-3.2-8.7V50.2z"
		/>
	<path d="M158.2,42V48c0.4-0.5,0.9-0.8,1.5-1.1c0.5-0.2,1.2-0.4,1.9-0.4c0.9,0,1.6,0.2,2,0.7c0.6,0.6,0.9,1.6,0.9,2.9v27.2h-4.4
		V51.6c0-0.5-0.1-0.9-0.3-1.2c-0.2-0.3-0.4-0.4-0.6-0.4c-0.2,0-0.5,0.2-0.7,0.5c-0.2,0.3-0.3,0.7-0.3,1.2v25.8h-4.4V42H158.2z"/>
	<path d="M175.4,76.6c-1.1,0.7-2.2,1.1-3.4,1.1c-1.5,0-2.7-0.2-3.6-0.7c-1.3-0.6-1.9-1.8-1.9-3.4V50.3c0-1.3,0.4-2.3,1.1-3
		c0.9-0.8,2.3-1.2,4.2-1.2c1.5,0,2.7,0.2,3.5,0.7c1.2,0.6,1.8,1.8,1.8,3.4v23.5C177.2,74.8,176.6,75.7,175.4,76.6z M172.5,50.2
		c-0.2-0.4-0.4-0.5-0.6-0.5c-0.3,0-0.5,0.2-0.7,0.5s-0.3,0.8-0.3,1.4v20.6c0,1.3,0.3,1.9,1,1.9c0.6,0,0.9-0.6,0.9-1.9V51.6
		C172.8,51,172.7,50.6,172.5,50.2z"/>
	<path d="M183.9,46.5v1.1c0.3-0.3,0.5-0.5,0.8-0.8c0.5-0.4,1.2-0.7,2.1-0.7c1.1,0,1.9,0.2,2.4,0.7c0.6,0.6,1,1.7,1,3.4v23.5
		c0,1.6-0.4,2.8-1.1,3.4c-0.5,0.4-1.2,0.6-2.2,0.6c-0.6,0-1.2-0.2-1.7-0.5c-0.2-0.1-0.6-0.5-1.2-1v5.5h-4.4V46.5H183.9z M184.9,73.9
		c0.6,0,0.9-0.6,0.9-1.7V51.7c0-1.1-0.3-1.7-0.8-1.7c-0.2,0-0.5,0.2-0.7,0.5s-0.4,0.7-0.4,1.2v20.6
		C183.9,73.4,184.2,73.9,184.9,73.9z"/>
</g>
</svg>
